<mxfile host="app.diagrams.net" modified="2021-02-26T02:46:36.821Z" agent="5.0 (X11; Linux x86_64) AppleWebKit/537.36 (KHTML, like Gecko) Chrome/88.0.4324.182 Safari/537.36" etag="6l-K5gCVLQIwdK4wsSq_" version="14.4.3" type="github">
  <diagram id="97dBMP7U-rg1EEQUuZlv" name="Page-1">
    <mxGraphModel dx="1373" dy="703" grid="1" gridSize="10" guides="1" tooltips="1" connect="1" arrows="1" fold="1" page="1" pageScale="1" pageWidth="850" pageHeight="1100" math="0" shadow="0">
      <root>
        <mxCell id="0" />
        <mxCell id="1" parent="0" />
        <mxCell id="IEVujRrbs8_3U6TJMkjn-11" value="" style="edgeStyle=orthogonalEdgeStyle;rounded=0;orthogonalLoop=1;jettySize=auto;html=1;fontSize=17;curved=1;startArrow=classic;startFill=1;strokeWidth=2;" parent="1" source="IEVujRrbs8_3U6TJMkjn-2" target="IEVujRrbs8_3U6TJMkjn-10" edge="1">
          <mxGeometry relative="1" as="geometry" />
        </mxCell>
        <mxCell id="IEVujRrbs8_3U6TJMkjn-2" value="" style="shape=table;html=1;whiteSpace=wrap;startSize=0;container=1;collapsible=0;childLayout=tableLayout;fontSize=17;strokeWidth=2;" parent="1" vertex="1">
          <mxGeometry x="280" y="280" width="270" height="170" as="geometry" />
        </mxCell>
        <mxCell id="IEVujRrbs8_3U6TJMkjn-3" value="" style="shape=partialRectangle;html=1;whiteSpace=wrap;collapsible=0;dropTarget=0;pointerEvents=0;fillColor=none;top=0;left=0;bottom=0;right=0;points=[[0,0.5],[1,0.5]];portConstraint=eastwest;fontSize=17;strokeWidth=2;" parent="IEVujRrbs8_3U6TJMkjn-2" vertex="1">
          <mxGeometry width="270" height="85" as="geometry" />
        </mxCell>
        <mxCell id="IEVujRrbs8_3U6TJMkjn-4" value="authentication" style="shape=partialRectangle;html=1;whiteSpace=wrap;connectable=0;overflow=hidden;fillColor=none;top=0;left=0;bottom=0;right=0;fontSize=17;strokeWidth=2;" parent="IEVujRrbs8_3U6TJMkjn-3" vertex="1">
          <mxGeometry width="135" height="85" as="geometry" />
        </mxCell>
        <mxCell id="IEVujRrbs8_3U6TJMkjn-5" value="publisher" style="shape=partialRectangle;html=1;whiteSpace=wrap;connectable=0;overflow=hidden;fillColor=none;top=0;left=0;bottom=0;right=0;fontSize=17;strokeWidth=2;" parent="IEVujRrbs8_3U6TJMkjn-3" vertex="1">
          <mxGeometry x="135" width="135" height="85" as="geometry" />
        </mxCell>
        <mxCell id="IEVujRrbs8_3U6TJMkjn-6" value="" style="shape=partialRectangle;html=1;whiteSpace=wrap;collapsible=0;dropTarget=0;pointerEvents=0;fillColor=none;top=0;left=0;bottom=0;right=0;points=[[0,0.5],[1,0.5]];portConstraint=eastwest;fontSize=17;strokeWidth=2;" parent="IEVujRrbs8_3U6TJMkjn-2" vertex="1">
          <mxGeometry y="85" width="270" height="85" as="geometry" />
        </mxCell>
        <mxCell id="IEVujRrbs8_3U6TJMkjn-7" value="django&lt;br style=&quot;font-size: 17px;&quot;&gt;channel&lt;br style=&quot;font-size: 17px;&quot;&gt;for json socket" style="shape=partialRectangle;html=1;whiteSpace=wrap;connectable=0;overflow=hidden;fillColor=none;top=0;left=0;bottom=0;right=0;fontSize=17;strokeWidth=2;" parent="IEVujRrbs8_3U6TJMkjn-6" vertex="1">
          <mxGeometry width="135" height="85" as="geometry" />
        </mxCell>
        <mxCell id="IEVujRrbs8_3U6TJMkjn-8" value="server side /&lt;br style=&quot;font-size: 17px;&quot;&gt;application side" style="shape=partialRectangle;html=1;whiteSpace=wrap;connectable=0;overflow=hidden;fillColor=none;top=0;left=0;bottom=0;right=0;fontSize=17;strokeWidth=2;" parent="IEVujRrbs8_3U6TJMkjn-6" vertex="1">
          <mxGeometry x="135" width="135" height="85" as="geometry" />
        </mxCell>
        <mxCell id="IEVujRrbs8_3U6TJMkjn-9" value="subscriber1:&lt;br style=&quot;font-size: 17px;&quot;&gt;UI" style="ellipse;whiteSpace=wrap;html=1;aspect=fixed;fontSize=17;strokeWidth=2;" parent="1" vertex="1">
          <mxGeometry x="650" y="310" width="110" height="110" as="geometry" />
        </mxCell>
        <mxCell id="IEVujRrbs8_3U6TJMkjn-10" value="&amp;nbsp;&lt;br style=&quot;font-size: 17px&quot;&gt;model" style="ellipse;whiteSpace=wrap;html=1;aspect=fixed;fontSize=17;strokeWidth=2;" parent="1" vertex="1">
          <mxGeometry x="70" y="310" width="110" height="110" as="geometry" />
        </mxCell>
        <mxCell id="IEVujRrbs8_3U6TJMkjn-32" value="" style="edgeStyle=orthogonalEdgeStyle;rounded=0;orthogonalLoop=1;jettySize=auto;html=1;fontSize=17;curved=1;startArrow=classic;startFill=1;strokeWidth=2;" parent="1" edge="1">
          <mxGeometry relative="1" as="geometry">
            <mxPoint x="650" y="364.5" as="sourcePoint" />
            <mxPoint x="550" y="364.5" as="targetPoint" />
          </mxGeometry>
        </mxCell>
        <mxCell id="_dCRkpDqDrZ6vmyKsa8C-1" value="&lt;font style=&quot;font-size: 18px&quot;&gt;Relay Server&lt;/font&gt;" style="text;html=1;align=center;verticalAlign=middle;resizable=0;points=[];autosize=1;strokeWidth=2;" parent="1" vertex="1">
          <mxGeometry x="365" y="460" width="120" height="20" as="geometry" />
        </mxCell>
        <mxCell id="_dCRkpDqDrZ6vmyKsa8C-2" value="&lt;font color=&quot;#999999&quot;&gt;subscriber2:&lt;br style=&quot;font-size: 17px&quot;&gt;UI&lt;/font&gt;" style="ellipse;whiteSpace=wrap;html=1;aspect=fixed;fontSize=17;strokeColor=#878787;strokeWidth=2;" parent="1" vertex="1">
          <mxGeometry x="650" y="170" width="110" height="110" as="geometry" />
        </mxCell>
        <mxCell id="_dCRkpDqDrZ6vmyKsa8C-3" value="" style="rounded=0;orthogonalLoop=1;jettySize=auto;html=1;fontSize=17;startArrow=classic;startFill=1;entryX=1.002;entryY=0.29;entryDx=0;entryDy=0;entryPerimeter=0;strokeColor=#919191;strokeWidth=2;" parent="1" target="IEVujRrbs8_3U6TJMkjn-3" edge="1">
          <mxGeometry relative="1" as="geometry">
            <mxPoint x="660" y="260" as="sourcePoint" />
            <mxPoint x="560" y="230" as="targetPoint" />
          </mxGeometry>
        </mxCell>
      </root>
    </mxGraphModel>
  </diagram>
</mxfile>
